# xmcd
#
# Track frame offsets:
#	150
#	12863
#	24794
#	36829
#	56836
#	72324
#	86914
#	96333
#	109963
#	124683
#	135925
#	145823
#	167091
#	177670
#	191166
#	203915
#	220103
#	232754
#	244081
#	255521
#	268427
#	284557
#
# Disc length: 3947 seconds
#
# Revision: 0
# Processed by: cddbd v1.4PL0 Copyright (c) Steve Scherf et al.
# Submitted via: EasyCDDAExtractor 4.5.0.2
#
DISCID=4a0f6916
DTITLE=Altstätter Städtli-Chlepfer - Guggefieber
DYEAR=1900
DGENRE=
TTITLE0=Hinterher
TTITLE1=Klavier
TTITLE2=Amerika
TTITLE3=Schunkel
TTITLE4=Loxly
TTITLE5=Hello Josephine
TTITLE6=Nabucco
TTITLE7=70er Medley
TTITLE8=Blues
TTITLE9=60er Medley
TTITLE10=Hiahata
TTITLE11=Regenbogen
TTITLE12=Queen
TTITLE13=Carol
TTITLE14=Rock
TTITLE15=Get Back
TTITLE16=Girls
TTITLE17=Gemseli Jäger
TTITLE18=Walking
TTITLE19=Runaway
TTITLE20=Auf dem Mond
TTITLE21=Der Hund
EXTD=
EXTT0=ID3 by PB
EXTT1=
EXTT2=
EXTT3=
EXTT4=
EXTT5=
EXTT6=
EXTT7=
EXTT8=
EXTT9=
EXTT10=
EXTT11=
EXTT12=
EXTT13=
EXTT14=
EXTT15=
EXTT16=
EXTT17=
EXTT18=
EXTT19=
EXTT20=
EXTT21=
PLAYORDER=
